<svg width="2048" height="2048" viewBox="0 0 2048 2048" fill="none" xmlns="http://www.w3.org/2000/svg">
<g clip-path="url(#clip0)">
<path opacity="0.39" d="M895.29 891.455C925.023 842.168 954.632 792.93 981.951 741.752L1067.39 903.566L1175.7 1107.16L1080.8 896.951L994.292 706.315L983.494 682.492L969.784 705.843C936.941 761.82 899.644 816.181 862.547 870.318C825.449 924.455 787.754 978.418 749.636 1031.96L703.532 1096.29L761.48 1102.33C770.835 1087.86 780.24 1073.41 789.57 1058.94C825.3 1003.43 860.954 947.805 895.29 891.455Z" fill="black"/>
<path d="M1165.4 180.488L1141.99 224.156C1124.42 256.832 1106.79 289.525 1089.09 322.234C1073.96 350.136 1058.75 378.021 1043.46 405.889C1035.37 420.586 1027.36 435.357 1019.27 450.079L1000.74 483.302L1000.91 483.7L1022.61 531.993C1034.7 512.323 1046.87 492.702 1058.83 472.957C1062.67 466.566 1066.42 460.15 1070.28 453.759C1086.25 427.375 1102 400.841 1117.83 374.332C1133.65 347.823 1149.9 321.115 1165.7 294.332L1165.9 293.91C1166.15 294.407 1166.37 294.88 1166.59 295.377L1303.14 542.885C1356.56 640.018 1411.22 736.43 1465.24 833.215C1519.26 930 1573.45 1026.74 1628.39 1122.95L1757.22 1349.54C1757.22 1349.67 1787.75 1402.66 1787.8 1402.78C1789.4 1405.55 1790.29 1408.66 1790.39 1411.85C1790.49 1415.04 1789.79 1418.21 1788.37 1421.06C1786.94 1423.92 1784.83 1426.38 1782.22 1428.22C1779.61 1430.06 1776.59 1431.22 1773.42 1431.61C1788.1 1431.83 1802.8 1432.13 1817.51 1432.3C1819.37 1432.3 1821.21 1432.3 1823.06 1432.3C1830.58 1432.16 1837.94 1430.09 1844.43 1426.28C1850.92 1422.48 1856.32 1417.07 1860.12 1410.58C1863.92 1404.09 1865.99 1396.73 1866.12 1389.22C1866.26 1381.7 1864.46 1374.27 1860.9 1367.65C1860.65 1367.2 1860.5 1366.7 1860.25 1366.25C1859.97 1365.79 1859.65 1365.35 1859.31 1364.94L1697.03 1083.66C1641.9 987.594 1585.67 892.002 1529.63 796.361C1473.6 700.72 1417.99 604.88 1361.21 509.637L1191.33 223.659L1165.6 180.414L1165.27 181.06L1165.4 180.488Z" fill="black"/>
<path d="M1171.22 975.16C1199.04 1025.54 1226.93 1075.8 1257.61 1125.01L1074.68 1118.07L853.017 1110.04L1073.66 1133.07L1282.12 1153.51L1308.12 1156L1294.78 1132.6C1262.71 1076.2 1234.22 1016.71 1205.88 957.529C1177.54 898.344 1149.62 838.736 1122.21 778.929L1092.35 713.204L1058.41 760.204C1065.21 773.466 1072.01 786.729 1078.81 799.992C1109.17 858.655 1139.47 917.268 1171.22 975.16Z" fill="black"/>
<path d="M969.884 705.843C937.041 761.82 899.744 816.181 862.646 870.318C825.549 924.455 787.854 978.418 749.736 1031.96L634.81 1192.4L591.119 1252.91L560.043 1295.95L519.337 1352.35L484.827 1400.12L544.542 1402.14C651.406 1405.77 758.295 1409.18 865.159 1411.71L1185.93 1420.29L1497.76 1426.53C1483.55 1401.09 1469.27 1375.68 1455.21 1350.16C1454.39 1348.67 1453.57 1347.18 1452.73 1345.71L1187.2 1342.28L866.428 1340.12C779.129 1339.32 691.813 1339.01 604.48 1339.17L634.337 1294.96L661.234 1255.05L681.636 1224.78C718.087 1169.82 753.916 1114.42 789.695 1059.01C825.474 1003.61 860.979 947.905 895.315 891.455C925.048 842.167 954.657 792.93 981.976 741.752L1067.42 903.566L1179.38 1113.25L1080.95 896.901L994.441 706.266L983.643 682.442L969.884 705.843Z" fill="black"/>
<path d="M241.515 1503.05C240.57 1504.67 239.599 1506.23 238.654 1507.83C235.005 1514.42 233.114 1521.83 233.162 1529.36C233.211 1536.89 235.197 1544.29 238.931 1550.83C242.665 1557.37 248.02 1562.84 254.482 1566.72C260.943 1570.59 268.294 1572.74 275.826 1572.95C276.349 1572.95 276.846 1573.1 277.394 1573.1C277.941 1573.1 278.439 1572.95 279.011 1572.95L603.784 1573.08C714.703 1573.45 825.574 1572.51 936.444 1571.86C1047.31 1571.21 1158.21 1570.92 1269.08 1569.37L1601.71 1565.25L1651.7 1564.62H1652.05L1651.4 1564.4L1651.18 1564.25H1651.6L1629.36 1528.52C1609.72 1497.02 1590.16 1465.38 1570.69 1433.62C1554.1 1406.56 1537.55 1379.46 1521.05 1352.3C1512.34 1337.93 1503.63 1323.63 1494.85 1309.26L1475.32 1276.61L1422.2 1271.18C1433.19 1291.5 1444.09 1311.84 1455.24 1332.06C1458.85 1338.58 1462.53 1345.04 1466.14 1351.56C1481.07 1378.59 1496.14 1405.5 1511.2 1432.45C1524.98 1457.15 1538.57 1481.89 1552.5 1506.56H1552.37C1552.65 1507.03 1552.92 1507.5 1553.17 1507.97L1269.33 1502.38C1158.46 1500.07 1047.59 1499.2 936.692 1497.41C825.797 1495.62 715.052 1494.47 604.082 1494.02L342.831 1492.23H343.403L282.121 1492.13C279.579 1492.13 277.063 1491.62 274.717 1490.64C272.371 1489.66 270.241 1488.23 268.448 1486.43C266.655 1484.63 265.235 1482.49 264.268 1480.14C263.301 1477.8 262.807 1475.28 262.813 1472.74C262.813 1470.05 263.062 1467.27 263.037 1467.24C255.349 1479.97 249.104 1490.29 241.515 1503.05Z" fill="black"/>
<path d="M991.654 499.317L1090.56 709.2L1040.65 599.26L1015.74 543.855L994.143 495.81L959.782 419.293L935.597 365.553L991.654 499.317Z" fill="black"/>
<path d="M1072.54 468.605L1205.33 705.619L1363.9 984.336C1406.85 1060.28 1450.22 1136.02 1494.03 1211.55L1434.11 1207.4L1385.72 1204.07L1356.49 1202.05C1290.68 1197.85 1224.62 1194.59 1158.83 1191.31C1093.05 1188.03 1026.96 1185.14 960.852 1183.65C903.277 1182.56 845.802 1181.56 787.779 1183.48L885.288 1028.63L1015.74 819.911L872.798 1020.24L750.881 1190.46L735.678 1211.7L762.749 1211.9C827.688 1212.32 893.449 1217.42 958.886 1222.49C1024.32 1227.57 1089.96 1233.19 1155.45 1239.38L1352.01 1258.63L1418.99 1265.44L1472.13 1270.84L1548.17 1278.55L1606.79 1284.51L1578.67 1231.79C1528.35 1137.5 1477.67 1043.39 1426.65 949.471L1273.61 667.696L1120.07 389.178C1105.31 413.921 1090.61 438.664 1075.73 463.259L1072.54 468.605Z" fill="black"/>
<path d="M1262.19 1295.8C1262.19 1295.8 1110.26 1280.46 1031.84 1274.39C946.048 1267.6 860.158 1263.03 774.144 1259.47C739.211 1257.91 704.262 1256.56 669.295 1255.42L668.624 1256.41L642.722 1294.88L773.547 1292.89C859.387 1292.2 945.21 1292.26 1031.02 1293.09C1111.18 1294.59 1271.47 1302.67 1271.47 1302.67L1247.9 1254.52L1243.58 1254.1L1262.19 1295.8Z" fill="black"/>
<path d="M1198.81 1154.7L1214.29 1188.28L1215.36 1187.83L1198.81 1154.7Z" fill="black"/>
<path d="M890.488 109.764C890.239 110.212 889.841 110.585 889.592 111.033C889.344 111.48 889.169 112.003 888.921 112.525L726.372 393.53C670.639 489.345 616 585.782 561.137 681.995C506.275 778.208 451.063 874.396 396.922 971.106L234.175 1261.14L209.543 1305.03L258.907 1303.39C293.74 1302.24 328.574 1301.22 363.407 1300.3C395.205 1299.41 427.012 1298.62 458.826 1297.94C477.935 1297.49 497.093 1297 516.202 1296.62L550.339 1296.1L559.396 1283.52L581.789 1252.63C559.968 1252.04 538.147 1251.37 516.327 1250.94C506.623 1250.74 496.894 1250.67 487.166 1250.49C456.288 1249.9 425.361 1249.5 394.459 1249.05C365.672 1248.65 336.909 1248.01 308.122 1247.73L454.92 1004.83C512.346 910.006 568.552 814.465 625.43 719.346C682.308 624.227 739.062 529.009 794.92 433.368L927.113 208.091C929.477 204.038 957.667 155.521 957.717 155.397C958.989 153.197 960.683 151.269 962.701 149.725C964.72 148.18 967.024 147.049 969.48 146.395C971.937 145.741 974.499 145.578 977.019 145.915C979.538 146.252 981.967 147.083 984.165 148.359C986.235 149.576 988.065 151.16 989.564 153.034C982.473 140.377 975.482 127.669 968.366 115.012C967.445 113.37 966.55 111.754 965.629 110.038C961.887 103.762 956.625 98.5278 950.327 94.819C940.367 89.0407 928.547 87.3694 917.374 90.1599C906.202 92.9503 896.557 99.9828 890.488 109.764V109.764Z" fill="black"/>
<path d="M903.974 416.284C847.394 507.034 791.18 597.95 735.33 689.032L567.706 962.378L401.824 1236.74C401.003 1238.11 400.182 1239.43 399.336 1240.77L408.616 1240.92C436.4 1241.32 464.192 1241.75 491.993 1242.21L634.686 1002.51L796.935 725.961C841.274 650.761 885.23 575.329 928.805 499.665L958.364 560.093L979.264 602.866L989.391 623.531C1018.68 682.616 1048.73 741.354 1078.96 800.091C1109.19 858.829 1139.57 917.293 1171.32 975.259C1199.14 1025.64 1227.03 1075.9 1257.71 1125.11L1074.78 1118.17L843.388 1109.64L1073.69 1133.17L1282.14 1153.61L1308.14 1156.1L1294.78 1132.6C1262.71 1076.2 1234.22 1016.71 1205.88 957.529C1177.54 898.344 1149.62 838.736 1122.21 778.929L1040.65 599.26L1015.76 543.855L994.168 495.81L959.782 419.293L935.623 365.553L903.974 416.284Z" fill="black"/>
<path d="M1123.77 669.636C1123.77 669.636 1182.54 802.056 1214.27 868.279C1251.31 945.965 1290.3 1022.66 1330.11 1098.88C1347.21 1131.8 1364.53 1164.64 1382.06 1197.38L1429.96 1200.68L1359.47 1082.66C1316 1008.71 1273.15 934.402 1230.94 859.749C1194.19 793.228 1124.35 658.147 1124.35 658.147L1093.92 704.102L1095.86 708.354L1123.77 669.636Z" fill="black"/>
<path d="M1036.81 790.07L1055.35 764.531L1054.65 763.61L1036.81 790.07Z" fill="black"/>
<path d="M803.28 1106.61L769.492 1103.23L768.347 1104.25L803.28 1106.61Z" fill="black"/>
<path d="M894.32 674.883C852.005 749.486 809.044 823.732 765.436 897.623C730.154 956.087 639.687 1096.09 639.687 1096.09L695.819 1099.65L698.556 1095.84L651.132 1090.87C651.132 1090.87 745.929 959.071 781.111 907.644C829.903 836.771 876.828 764.68 922.933 692.091C940.3 664.903 957.501 637.606 974.536 610.202L972.745 606.546L953.91 567.977L894.32 674.883Z" fill="black"/>
<path d="M1469.94 1266.68L1244.87 1248.13L1351.81 1258.63L1418.81 1265.42L1471.93 1270.84L1548.17 1278.6L1606.81 1284.56L1469.94 1266.68Z" fill="black"/>
<path d="M456.985 1303.96L361.84 1306.3C331.916 1355.87 302.026 1405.47 272.169 1455.11C272.162 1455.24 272.162 1455.37 272.169 1455.5C271.243 1458.32 270.602 1461.22 270.253 1464.16C270.246 1466.7 270.741 1469.22 271.71 1471.57C272.678 1473.92 274.1 1476.06 275.896 1477.86C277.691 1479.66 279.825 1481.09 282.174 1482.07C284.523 1483.05 287.041 1483.55 289.585 1483.55L349.847 1483.7L456.985 1303.96Z" fill="black"/>
<path d="M1034.95 401.065L1080.48 317.559C1052.5 266.895 1024.45 216.231 996.332 165.568L996.059 165.269C994.076 163.065 991.884 161.058 989.515 159.276C985.066 156.703 979.777 155.998 974.81 157.318C969.842 158.637 965.6 161.872 963.017 166.314C963.017 166.438 932.786 218.536 932.786 218.536L1034.95 401.065Z" fill="black"/>
<path d="M1034.95 401.065L1080.48 317.559C1052.5 266.895 1024.45 216.231 996.332 165.568L996.059 165.269C994.076 163.065 991.884 161.058 989.515 159.276C985.066 156.703 979.777 155.998 974.81 157.318C969.842 158.637 965.6 161.872 963.017 166.314C963.017 166.438 932.786 218.536 932.786 218.536L1034.95 401.065Z" fill="black"/>
<path d="M1525.95 1344.94L1575.56 1426.11C1633.49 1427.25 1702.76 1428.05 1760.68 1428.87H1761.08C1763.98 1428.26 1766.82 1427.37 1769.56 1426.21C1774.01 1423.64 1777.26 1419.41 1778.6 1414.45C1779.94 1409.5 1779.25 1404.21 1776.7 1399.75L1746.7 1347.53L1525.95 1344.94Z" fill="black"/>
<path d="M93.4479 1684.78V1640.02H291.228C299.521 1640.02 306.256 1644.1 311.431 1652.26C316.413 1660.19 318.932 1669.43 318.671 1678.79V1777.04C318.944 1786.41 316.424 1795.65 311.431 1803.58C306.14 1811.7 299.405 1815.76 291.228 1815.76H93.4479V1770.93H267.192C268.62 1770.67 269.905 1769.9 270.8 1768.76C271.856 1767.68 272.685 1766.39 273.241 1764.98C273.796 1763.57 274.066 1762.07 274.035 1760.56V1695.13C274.067 1693.62 273.797 1692.12 273.242 1690.71C272.686 1689.31 271.856 1688.03 270.8 1686.95C269.905 1685.81 268.62 1685.04 267.192 1684.78H93.4479Z" fill="black"/>
<path d="M346.265 1815.69V1640H391.05V1815.69H346.265Z" fill="black"/>
<path d="M515.829 1815.69L462.036 1720.34V1815.69H417.25V1640H461.265L529.538 1759.06L597.812 1640H641.777V1815.69H596.991V1720.39L543.372 1815.69H515.829Z" fill="black"/>
<path d="M719.107 1750.26C718.485 1750.26 717.689 1751.01 716.619 1752.47C715.108 1754.93 714.355 1757.77 714.455 1760.66C714.366 1763.54 715.118 1766.39 716.619 1768.86C717.581 1770.3 718.411 1771.03 719.107 1771.03H895.365V1815.79H697.287C688.993 1815.79 682.259 1811.73 677.083 1803.6C672.091 1795.67 669.57 1786.43 669.843 1777.07V1678.77C669.582 1669.4 672.102 1660.17 677.083 1652.23C682.341 1644.08 689.076 1640 697.287 1640H895.365V1684.76H719.107C718.494 1684.76 717.664 1685.48 716.619 1686.92C715.199 1689.42 714.453 1692.24 714.453 1695.12C714.453 1697.99 715.199 1700.81 716.619 1703.31C717.59 1704.78 718.386 1705.5 719.107 1705.5H895.365V1750.26H719.107Z" fill="black"/>
<path d="M922.958 1815.69V1640H973.118L1090.76 1758.22V1640H1135.54V1815.69H1085.26L967.644 1697.57V1815.69H922.958Z" fill="black"/>
<path d="M1191.62 1815.69C1182.55 1815.69 1175.23 1811.43 1169.65 1802.91C1164.81 1795.14 1162.36 1786.12 1162.61 1776.97V1759.81H1210.48C1210.26 1763.17 1211.05 1766.51 1212.77 1769.41C1213.47 1770.45 1213.69 1770.98 1213.44 1770.98H1340.14C1339.89 1770.98 1340.11 1770.45 1340.81 1769.41C1342.31 1766.72 1343.1 1763.69 1343.1 1760.61C1343.1 1757.52 1342.31 1754.49 1340.81 1751.8C1340.11 1750.76 1339.89 1750.21 1340.14 1750.21H1191.62C1182.52 1750.21 1175.19 1745.95 1169.65 1737.43C1164.81 1729.65 1162.36 1720.62 1162.61 1711.47V1678.77C1162.37 1669.62 1164.81 1660.6 1169.65 1652.83C1175.21 1644.27 1182.53 1640 1191.62 1640H1361.96C1371.03 1640 1378.35 1644.27 1383.9 1652.83C1388.77 1660.59 1391.24 1669.61 1391 1678.77V1695.92H1343.1C1343.33 1692.57 1342.53 1689.22 1340.81 1686.33C1340.11 1685.28 1339.89 1684.78 1340.14 1684.78H1213.44C1213.69 1684.78 1213.44 1685.28 1212.77 1686.33C1211.18 1688.98 1210.39 1692.04 1210.48 1695.13C1210.38 1698.22 1211.18 1701.28 1212.77 1703.93C1213.47 1705 1213.69 1705.52 1213.44 1705.52H1361.96C1371.03 1705.52 1378.35 1709.79 1383.9 1718.33C1388.78 1726.09 1391.25 1735.11 1391 1744.27V1777.02C1391.25 1786.17 1388.78 1795.2 1383.9 1802.96C1378.38 1811.44 1371.07 1815.69 1361.96 1815.69H1191.62Z" fill="black"/>
<path d="M1418.61 1815.69V1640H1463.4V1815.69H1418.61Z" fill="black"/>
<path d="M1517.09 1815.69C1508.8 1815.69 1502.07 1811.63 1496.91 1803.5C1491.95 1795.56 1489.44 1786.33 1489.7 1776.97V1678.77C1489.44 1669.4 1491.95 1660.17 1496.91 1652.23C1502.19 1644.08 1508.92 1640 1517.09 1640H1687.45C1695.75 1640 1702.48 1644.08 1707.66 1652.23C1712.64 1660.17 1715.16 1669.4 1714.9 1678.77V1777.02C1715.17 1786.38 1712.65 1795.62 1707.66 1803.55C1702.38 1811.68 1695.65 1815.74 1687.45 1815.74L1517.09 1815.69ZM1665.63 1770.93C1666.26 1770.93 1667.08 1770.2 1668.12 1768.76C1669.62 1766.29 1670.37 1763.44 1670.29 1760.56V1695.13C1670.37 1692.25 1669.62 1689.41 1668.12 1686.95C1667.18 1685.51 1666.35 1684.78 1665.63 1684.78H1538.62C1537.97 1684.78 1537.14 1685.51 1536.13 1686.95C1534.63 1689.41 1533.88 1692.25 1533.96 1695.13V1760.66C1533.87 1763.54 1534.63 1766.39 1536.13 1768.86C1537.07 1770.3 1537.9 1771.03 1538.62 1771.03L1665.63 1770.93Z" fill="black"/>
<path d="M1742.64 1815.69V1640H1792.8L1910.39 1758.22V1640H1955.17V1815.69H1904.79L1787.2 1697.57V1815.69H1742.64Z" fill="black"/>
<path d="M153.561 1925.95C156.147 1929.41 157.473 1933.65 157.318 1937.96C157.423 1940.87 156.794 1943.77 155.49 1946.37C154.186 1948.98 152.248 1951.22 149.853 1952.88C144.977 1956.36 137.877 1958.1 128.555 1958.1H93.0249V1883.4H126.565C135.099 1883.4 141.717 1885.12 146.469 1888.53C148.727 1890.12 150.551 1892.26 151.777 1894.74C153.002 1897.22 153.589 1899.96 153.486 1902.72C153.576 1906.31 152.625 1909.84 150.749 1912.9C148.966 1915.7 146.432 1917.95 143.434 1919.39C147.428 1920.43 150.98 1922.73 153.561 1925.95V1925.95ZM103.674 1892.06V1915.98H125.569C129.998 1916.24 134.406 1915.19 138.234 1912.95C139.61 1911.9 140.726 1910.55 141.495 1909.01C142.263 1907.46 142.663 1905.76 142.663 1904.03C142.663 1902.3 142.263 1900.6 141.495 1899.05C140.726 1897.51 139.61 1896.16 138.234 1895.12C134.415 1892.85 130.002 1891.78 125.569 1892.06H103.674ZM141.916 1946.52C143.445 1945.49 144.676 1944.09 145.484 1942.44C146.293 1940.79 146.65 1938.95 146.519 1937.12C146.519 1928.83 140.423 1924.68 128.232 1924.68H103.674V1949.55H128.232C132.988 1949.85 137.731 1948.79 141.916 1946.52V1946.52Z" fill="black"/>
<path d="M251.318 1954.05C245.388 1950.88 240.454 1946.13 237.061 1940.32C233.653 1934.37 231.859 1927.64 231.859 1920.78C231.859 1913.92 233.653 1907.18 237.061 1901.23C240.461 1895.44 245.395 1890.7 251.318 1887.53C257.604 1884.26 264.586 1882.56 271.671 1882.56C278.756 1882.56 285.737 1884.26 292.024 1887.53C297.919 1890.7 302.833 1895.42 306.231 1901.18C309.592 1907.17 311.357 1913.92 311.357 1920.78C311.357 1927.64 309.592 1934.39 306.231 1940.37C302.835 1946.15 297.921 1950.88 292.024 1954.05C285.733 1957.3 278.753 1959 271.671 1959C264.589 1959 257.609 1957.3 251.318 1954.05V1954.05ZM286.525 1945.77C290.848 1943.33 294.425 1939.76 296.875 1935.45C299.372 1930.96 300.683 1925.91 300.683 1920.78C300.683 1915.64 299.372 1910.59 296.875 1906.11C294.414 1901.8 290.839 1898.24 286.525 1895.79C281.967 1893.24 276.815 1891.96 271.596 1892.06C266.38 1891.98 261.234 1893.27 256.668 1895.79C252.299 1898.21 248.677 1901.78 246.193 1906.11C243.712 1910.6 242.411 1915.65 242.411 1920.78C242.411 1925.91 243.712 1930.96 246.193 1935.45C248.667 1939.79 252.292 1943.36 256.668 1945.77C261.234 1948.29 266.38 1949.58 271.596 1949.5C276.815 1949.6 281.967 1948.31 286.525 1945.77V1945.77Z" fill="black"/>
<path d="M405.158 1954.05C399.233 1950.87 394.3 1946.12 390.901 1940.32C387.492 1934.37 385.699 1927.64 385.699 1920.78C385.699 1913.92 387.492 1907.18 390.901 1901.23C394.308 1895.45 399.24 1890.71 405.158 1887.53C411.444 1884.26 418.425 1882.56 425.511 1882.56C432.596 1882.56 439.577 1884.26 445.863 1887.53C451.759 1890.7 456.673 1895.42 460.07 1901.18C463.431 1907.17 465.196 1913.92 465.196 1920.78C465.196 1927.64 463.431 1934.39 460.07 1940.37C456.674 1946.15 451.761 1950.88 445.863 1954.05C439.572 1957.3 432.593 1959 425.511 1959C418.428 1959 411.449 1957.3 405.158 1954.05ZM440.365 1945.77C444.694 1943.34 448.274 1939.77 450.715 1935.45C453.212 1930.96 454.522 1925.91 454.522 1920.78C454.522 1915.64 453.212 1910.59 450.715 1906.11C448.26 1901.8 444.683 1898.23 440.365 1895.79C435.807 1893.24 430.655 1891.96 425.436 1892.06C420.22 1891.98 415.075 1893.27 410.507 1895.79C406.139 1898.21 402.516 1901.78 400.032 1906.11C397.551 1910.6 396.25 1915.65 396.25 1920.78C396.25 1925.91 397.551 1930.96 400.032 1935.45C402.506 1939.79 406.131 1943.36 410.507 1945.77C415.075 1948.29 420.22 1949.57 425.436 1949.5C430.655 1949.6 435.807 1948.31 440.365 1945.77V1945.77Z" fill="black"/>
<path d="M569.995 1924.96L556.335 1938.83V1958.15H545.637V1883.4H556.335V1925.11L596.916 1883.35H609.108L577.161 1917L611.124 1958.1H598.683L569.995 1924.96Z" fill="black"/>
<path d="M686.563 1883.4H697.237V1958.15H686.563V1883.4Z" fill="black"/>
<path d="M848.091 1883.4V1958.15H839.457L794.671 1902.43V1958.15H783.997V1883.4H792.755L837.541 1939.16V1883.4H848.091Z" fill="black"/>
<path d="M986.43 1920.36H996.706V1949.5C992.87 1952.64 988.482 1955.03 983.767 1956.56C978.807 1958.21 973.616 1959.05 968.391 1959.05C961.27 1959.15 954.239 1957.44 947.963 1954.08C942.058 1950.89 937.129 1946.17 933.707 1940.4C930.313 1934.42 928.53 1927.66 928.53 1920.78C928.53 1913.9 930.313 1907.14 933.707 1901.16C937.117 1895.36 942.081 1890.63 948.038 1887.51C954.361 1884.15 961.43 1882.43 968.59 1882.53C974.161 1882.45 979.695 1883.45 984.887 1885.47C989.641 1887.34 993.899 1890.28 997.328 1894.07L990.709 1900.69C987.853 1897.87 984.462 1895.65 980.736 1894.17C977.01 1892.68 973.024 1891.95 969.013 1892.03C963.676 1891.95 958.405 1893.22 953.686 1895.71C949.261 1898.07 945.582 1901.62 943.062 1905.96C940.448 1910.49 939.115 1915.65 939.205 1920.88C939.136 1926.03 940.469 1931.1 943.062 1935.55C945.578 1939.91 949.257 1943.48 953.686 1945.87C958.36 1948.39 963.602 1949.68 968.913 1949.6C975.062 1949.73 981.115 1948.06 986.33 1944.8L986.43 1920.36Z" fill="black"/>
<path d="M1221.68 1939.45H1181.87L1173.63 1958.15H1162.64L1196.5 1883.4H1207.08L1241.06 1958.15H1229.84L1221.68 1939.45ZM1217.95 1930.92L1201.8 1894.29L1185.68 1930.92H1217.95Z" fill="black"/>
<path d="M1367.09 1920.36H1377.34V1949.5C1373.51 1952.64 1369.13 1955.03 1364.42 1956.56C1359.45 1958.21 1354.26 1959.05 1349.02 1959.05C1341.91 1959.15 1334.89 1957.44 1328.62 1954.08C1322.71 1950.89 1317.78 1946.17 1314.36 1940.4C1310.97 1934.42 1309.19 1927.66 1309.19 1920.78C1309.19 1913.9 1310.97 1907.14 1314.36 1901.16C1317.77 1895.36 1322.74 1890.63 1328.69 1887.51C1335.02 1884.15 1342.09 1882.43 1349.25 1882.53C1354.82 1882.45 1360.35 1883.45 1365.54 1885.47C1370.3 1887.34 1374.55 1890.28 1377.98 1894.07L1371.36 1900.69C1368.51 1897.87 1365.12 1895.66 1361.39 1894.17C1357.66 1892.69 1353.68 1891.96 1349.67 1892.03C1344.33 1891.95 1339.06 1893.22 1334.34 1895.71C1329.92 1898.07 1326.24 1901.62 1323.72 1905.96C1321.1 1910.49 1319.77 1915.65 1319.86 1920.88C1319.79 1926.03 1321.12 1931.1 1323.72 1935.55C1326.23 1939.91 1329.91 1943.48 1334.34 1945.87C1339.02 1948.39 1344.26 1949.68 1349.57 1949.6C1355.72 1949.73 1361.77 1948.06 1366.99 1944.8L1367.09 1920.36Z" fill="black"/>
<path d="M1516.22 1948.88V1958.15H1461.86V1883.4H1514.63V1892.78H1472.53V1915.73H1510.03V1924.81H1472.53V1948.95L1516.22 1948.88Z" fill="black"/>
<path d="M1661.85 1883.4V1958.15H1653.07L1608.28 1902.43V1958.15H1597.61V1883.4H1606.37L1651.15 1939.16V1883.4H1661.85Z" fill="black"/>
<path d="M1761.57 1954.05C1755.69 1950.87 1750.79 1946.14 1747.42 1940.37C1744.06 1934.39 1742.29 1927.64 1742.29 1920.78C1742.29 1913.92 1744.06 1907.17 1747.42 1901.18C1750.81 1895.41 1755.72 1890.69 1761.62 1887.53C1767.86 1884.17 1774.85 1882.46 1781.93 1882.56C1787.41 1882.49 1792.85 1883.48 1797.95 1885.49C1802.72 1887.37 1806.99 1890.36 1810.39 1894.19L1803.45 1900.91C1800.76 1898.03 1797.5 1895.76 1793.87 1894.23C1790.24 1892.71 1786.33 1891.96 1782.4 1892.06C1777.14 1891.98 1771.96 1893.27 1767.35 1895.79C1762.95 1898.19 1759.31 1901.76 1756.82 1906.11C1754.33 1910.59 1753.02 1915.64 1753.02 1920.78C1753.02 1925.91 1754.33 1930.96 1756.82 1935.45C1759.29 1939.81 1762.94 1943.38 1767.35 1945.77C1771.96 1948.29 1777.14 1949.58 1782.4 1949.5C1786.34 1949.58 1790.26 1948.82 1793.88 1947.28C1797.51 1945.73 1800.77 1943.44 1803.45 1940.55L1810.39 1947.26C1806.98 1951.11 1802.72 1954.11 1797.95 1956.02C1792.84 1958.05 1787.38 1959.06 1781.88 1959C1774.8 1959.12 1767.81 1957.41 1761.57 1954.05V1954.05Z" fill="black"/>
<path d="M1917.06 1932.32V1958.15H1906.48V1932.09L1876.77 1883.4H1888.22L1912.16 1922.82L1936.19 1883.4H1946.67L1917.06 1932.32Z" fill="black"/>
</g>
<defs>
<clipPath id="clip0">
<rect width="1862" height="1870" fill="white" transform="translate(93 89)"/>
</clipPath>
</defs>
</svg>
